<mxfile host="Electron" agent="Mozilla/5.0 (Windows NT 10.0; Win64; x64) AppleWebKit/537.36 (KHTML, like Gecko) draw.io/24.7.17 Chrome/128.0.6613.36 Electron/32.0.1 Safari/537.36" version="24.7.17">
  <diagram name="Page-1" id="K7QzcgsvAxKI8A2RLi_5">
    <mxGraphModel dx="2058" dy="1187" grid="1" gridSize="10" guides="1" tooltips="1" connect="1" arrows="1" fold="1" page="1" pageScale="1" pageWidth="850" pageHeight="1100" math="0" shadow="0">
      <root>
        <mxCell id="0" />
        <mxCell id="1" parent="0" />
        <mxCell id="TeRJvriaHBRas-pInGhy-3" value="" style="edgeStyle=orthogonalEdgeStyle;rounded=0;orthogonalLoop=1;jettySize=auto;html=1;" edge="1" parent="1" source="TeRJvriaHBRas-pInGhy-1" target="TeRJvriaHBRas-pInGhy-2">
          <mxGeometry relative="1" as="geometry" />
        </mxCell>
        <mxCell id="TeRJvriaHBRas-pInGhy-1" value="START" style="ellipse;whiteSpace=wrap;html=1;" vertex="1" parent="1">
          <mxGeometry x="360" y="30" width="120" height="80" as="geometry" />
        </mxCell>
        <mxCell id="TeRJvriaHBRas-pInGhy-11" style="edgeStyle=orthogonalEdgeStyle;rounded=0;orthogonalLoop=1;jettySize=auto;html=1;exitX=0;exitY=0.25;exitDx=0;exitDy=0;entryX=0.5;entryY=0;entryDx=0;entryDy=0;" edge="1" parent="1" source="TeRJvriaHBRas-pInGhy-2" target="TeRJvriaHBRas-pInGhy-4">
          <mxGeometry relative="1" as="geometry" />
        </mxCell>
        <mxCell id="TeRJvriaHBRas-pInGhy-12" style="edgeStyle=orthogonalEdgeStyle;rounded=0;orthogonalLoop=1;jettySize=auto;html=1;exitX=0;exitY=0.75;exitDx=0;exitDy=0;entryX=0.5;entryY=0;entryDx=0;entryDy=0;" edge="1" parent="1" source="TeRJvriaHBRas-pInGhy-2" target="TeRJvriaHBRas-pInGhy-5">
          <mxGeometry relative="1" as="geometry">
            <Array as="points">
              <mxPoint x="363" y="210" />
              <mxPoint x="300" y="210" />
            </Array>
          </mxGeometry>
        </mxCell>
        <mxCell id="TeRJvriaHBRas-pInGhy-13" style="edgeStyle=orthogonalEdgeStyle;rounded=0;orthogonalLoop=1;jettySize=auto;html=1;exitX=1;exitY=0.25;exitDx=0;exitDy=0;entryX=0.5;entryY=0;entryDx=0;entryDy=0;" edge="1" parent="1" source="TeRJvriaHBRas-pInGhy-2" target="TeRJvriaHBRas-pInGhy-7">
          <mxGeometry relative="1" as="geometry" />
        </mxCell>
        <mxCell id="TeRJvriaHBRas-pInGhy-14" style="edgeStyle=orthogonalEdgeStyle;rounded=0;orthogonalLoop=1;jettySize=auto;html=1;exitX=1;exitY=0.75;exitDx=0;exitDy=0;entryX=0.5;entryY=0;entryDx=0;entryDy=0;" edge="1" parent="1" source="TeRJvriaHBRas-pInGhy-2" target="TeRJvriaHBRas-pInGhy-6">
          <mxGeometry relative="1" as="geometry">
            <Array as="points">
              <mxPoint x="473" y="210" />
              <mxPoint x="540" y="210" />
            </Array>
          </mxGeometry>
        </mxCell>
        <mxCell id="TeRJvriaHBRas-pInGhy-2" value="Nháº­p a,b,total" style="shape=parallelogram;perimeter=parallelogramPerimeter;whiteSpace=wrap;html=1;fixedSize=1;size=10;" vertex="1" parent="1">
          <mxGeometry x="360" y="170" width="120" height="60" as="geometry" />
        </mxCell>
        <mxCell id="TeRJvriaHBRas-pInGhy-16" style="edgeStyle=orthogonalEdgeStyle;rounded=0;orthogonalLoop=1;jettySize=auto;html=1;entryX=0;entryY=0.5;entryDx=0;entryDy=0;" edge="1" parent="1" source="TeRJvriaHBRas-pInGhy-4" target="TeRJvriaHBRas-pInGhy-15">
          <mxGeometry relative="1" as="geometry">
            <Array as="points">
              <mxPoint x="100" y="490" />
            </Array>
          </mxGeometry>
        </mxCell>
        <mxCell id="TeRJvriaHBRas-pInGhy-4" value="total = a + b" style="rounded=0;whiteSpace=wrap;html=1;" vertex="1" parent="1">
          <mxGeometry x="40" y="300" width="120" height="60" as="geometry" />
        </mxCell>
        <mxCell id="TeRJvriaHBRas-pInGhy-17" style="edgeStyle=orthogonalEdgeStyle;rounded=0;orthogonalLoop=1;jettySize=auto;html=1;entryX=0.5;entryY=0;entryDx=0;entryDy=0;" edge="1" parent="1" source="TeRJvriaHBRas-pInGhy-5" target="TeRJvriaHBRas-pInGhy-15">
          <mxGeometry relative="1" as="geometry" />
        </mxCell>
        <mxCell id="TeRJvriaHBRas-pInGhy-5" value="total = a - b" style="rounded=0;whiteSpace=wrap;html=1;" vertex="1" parent="1">
          <mxGeometry x="240" y="300" width="120" height="60" as="geometry" />
        </mxCell>
        <mxCell id="TeRJvriaHBRas-pInGhy-18" style="edgeStyle=orthogonalEdgeStyle;rounded=0;orthogonalLoop=1;jettySize=auto;html=1;" edge="1" parent="1" source="TeRJvriaHBRas-pInGhy-6" target="TeRJvriaHBRas-pInGhy-15">
          <mxGeometry relative="1" as="geometry" />
        </mxCell>
        <mxCell id="TeRJvriaHBRas-pInGhy-6" value="total = a * b" style="rounded=0;whiteSpace=wrap;html=1;" vertex="1" parent="1">
          <mxGeometry x="480" y="300" width="120" height="60" as="geometry" />
        </mxCell>
        <mxCell id="TeRJvriaHBRas-pInGhy-19" style="edgeStyle=orthogonalEdgeStyle;rounded=0;orthogonalLoop=1;jettySize=auto;html=1;entryX=1;entryY=0.5;entryDx=0;entryDy=0;" edge="1" parent="1" source="TeRJvriaHBRas-pInGhy-7" target="TeRJvriaHBRas-pInGhy-15">
          <mxGeometry relative="1" as="geometry">
            <Array as="points">
              <mxPoint x="740" y="490" />
            </Array>
          </mxGeometry>
        </mxCell>
        <mxCell id="TeRJvriaHBRas-pInGhy-7" value="total = a/b" style="rounded=0;whiteSpace=wrap;html=1;" vertex="1" parent="1">
          <mxGeometry x="680" y="300" width="120" height="60" as="geometry" />
        </mxCell>
        <mxCell id="TeRJvriaHBRas-pInGhy-21" value="" style="edgeStyle=orthogonalEdgeStyle;rounded=0;orthogonalLoop=1;jettySize=auto;html=1;" edge="1" parent="1" source="TeRJvriaHBRas-pInGhy-15" target="TeRJvriaHBRas-pInGhy-20">
          <mxGeometry relative="1" as="geometry" />
        </mxCell>
        <mxCell id="TeRJvriaHBRas-pInGhy-15" value="total" style="shape=parallelogram;perimeter=parallelogramPerimeter;whiteSpace=wrap;html=1;fixedSize=1;" vertex="1" parent="1">
          <mxGeometry x="360" y="460" width="120" height="60" as="geometry" />
        </mxCell>
        <mxCell id="TeRJvriaHBRas-pInGhy-20" value="" style="ellipse;whiteSpace=wrap;html=1;" vertex="1" parent="1">
          <mxGeometry x="360" y="630" width="120" height="80" as="geometry" />
        </mxCell>
      </root>
    </mxGraphModel>
  </diagram>
</mxfile>
